<?xml version="1.0" encoding="UTF-8"?>
<svg id="Capa_1" data-name="Capa 1" xmlns="http://www.w3.org/2000/svg" viewBox="0 0 500 500">
  <defs>
    <style>
      .cls-1 {
        fill: #ea4650;
      }
    </style>
  </defs>
  <path class="cls-1" d="M193,430.5c-2.45,0-4.92-.47-7.27-1.45-7.1-2.94-11.73-9.87-11.73-17.55v-76h-57c-15.23,0-29.54-5.93-40.31-16.7-10.76-10.76-16.69-25.08-16.69-40.3V126.5c0-15.22,5.93-29.54,16.69-40.3,10.77-10.77,25.08-16.7,40.31-16.7H383c15.23,0,29.54,5.93,40.3,16.7,10.77,10.77,16.7,25.08,16.7,40.3v152c0,15.23-5.93,29.54-16.7,40.31-10.76,10.76-25.08,16.69-40.3,16.69h-87.13l-89.43,89.44c-3.63,3.63-8.5,5.57-13.44,5.57ZM117,107.5c-5.08,0-9.85,1.98-13.44,5.56-3.59,3.59-5.56,8.36-5.56,13.44v152c0,5.08,1.98,9.85,5.56,13.43,3.59,3.59,8.36,5.57,13.44,5.57h76c10.49,0,19,8.51,19,19v49.13l62.56-62.57c3.56-3.56,8.4-5.56,13.44-5.56h95c5.08,0,9.85-1.98,13.43-5.57,3.59-3.59,5.57-8.36,5.57-13.43V126.5c0-5.08-1.98-9.85-5.56-13.44-3.59-3.59-8.36-5.56-13.44-5.56H117Zm209.19,114h-.19c-10.49,0-19-8.51-19-19s8.51-19,19-19h.19c10.49,0,19,8.51,19,19s-8.51,19-19,19Zm-76,0h-.19c-10.49,0-19-8.51-19-19s8.51-19,19-19h.19c10.49,0,19,8.51,19,19s-8.51,19-19,19Zm-76,0h-.19c-10.49,0-19-8.51-19-19s8.51-19,19-19h.19c10.49,0,19,8.51,19,19s-8.51,19-19,19Z"/>
</svg>