<?xml version="1.0" encoding="UTF-8"?>
<svg id="Capa_1" data-name="Capa 1" xmlns="http://www.w3.org/2000/svg" viewBox="0 0 500 500">
  <defs>
    <style>
      .cls-1 {
        fill: #ea4650;
        fill-rule: evenodd;
      }
    </style>
  </defs>
  <path class="cls-1" d="M358.57,209.36c10.8,0,21.15-4.29,28.79-11.93,7.64-7.64,11.93-17.99,11.93-28.79s-4.29-21.15-11.93-28.79c-7.64-7.64-17.99-11.93-28.79-11.93s-21.15,4.29-28.79,11.93c-7.64,7.64-11.93,17.99-11.93,28.79s4.29,21.15,11.93,28.79c7.64,7.64,17.99,11.93,28.79,11.93Zm0,40.71c15.23,0,30.15-4.27,43.08-12.33,12.92-8.06,23.33-19.58,30.03-33.25,6.7-13.67,9.44-28.96,7.89-44.11-1.55-15.15-7.31-29.56-16.64-41.6-9.33-12.04-21.84-21.22-36.13-26.51-14.28-5.28-29.76-6.45-44.68-3.38-14.92,3.07-28.67,10.27-39.7,20.77-11.03,10.5-18.9,23.88-22.71,38.63H80.36c-5.4,0-10.58,2.15-14.39,5.96-3.82,3.82-5.96,9-5.96,14.4s2.14,10.58,5.96,14.4c3.82,3.82,9,5.96,14.39,5.96h199.36c4.51,17.48,14.71,32.96,28.98,44.02,14.27,11.05,31.82,17.05,49.87,17.05Zm-176.43,81.43c0,10.8-4.29,21.15-11.93,28.79-7.64,7.64-17.99,11.93-28.79,11.93s-21.15-4.29-28.79-11.93c-7.64-7.64-11.92-17.99-11.92-28.79s4.29-21.15,11.92-28.79c7.64-7.64,17.99-11.93,28.79-11.93s21.15,4.29,28.79,11.93c7.64,7.64,11.93,17.99,11.93,28.79Zm38.14,20.36c-4.99,19.15-16.79,35.84-33.18,46.93-16.4,11.09-36.27,15.83-55.9,13.34-19.64-2.49-37.69-12.05-50.79-26.89-13.1-14.84-20.35-33.94-20.4-53.73,0-19.82,7.22-38.97,20.32-53.85s31.18-24.46,50.85-26.96c19.67-2.5,39.57,2.26,55.97,13.39,16.41,11.13,28.19,27.86,33.14,47.06h199.36c5.4,0,10.58,2.15,14.4,5.96,3.82,3.82,5.96,9,5.96,14.4s-2.15,10.58-5.96,14.4c-3.82,3.82-9,5.96-14.4,5.96H220.28Z"/>
</svg>