<?xml version="1.0" encoding="UTF-8"?>
<svg id="Capa_1" data-name="Capa 1" xmlns="http://www.w3.org/2000/svg" viewBox="0 0 500 500">
  <defs>
    <style>
      .cls-1 {
        fill: #ea4650;
      }
    </style>
  </defs>
  <path class="cls-1" d="M195.71,127.85c0,15.64-5.4,30.81-15.29,42.93-9.89,12.12-23.67,20.45-38.99,23.57v111.29c16.48,3.36,31.12,12.72,41.08,26.27,9.97,13.55,14.55,30.31,12.86,47.04-1.69,16.73-9.53,32.24-22.01,43.52-12.47,11.28-28.69,17.52-45.51,17.52s-33.03-6.24-45.51-17.52c-12.47-11.28-20.32-26.78-22.01-43.52-1.69-16.73,2.89-33.49,12.86-47.04,9.97-13.54,24.61-22.91,41.08-26.27v-111.29c-12.58-2.57-24.17-8.65-33.43-17.55-9.26-8.89-15.81-20.23-18.88-32.7-3.07-12.47-2.55-25.55,1.52-37.73,4.06-12.18,11.5-22.95,21.44-31.08,9.94-8.12,21.99-13.25,34.73-14.8,12.75-1.55,25.67,.55,37.27,6.05,11.6,5.5,21.4,14.18,28.27,25.03,6.86,10.85,10.51,23.42,10.51,36.26Zm176.43,312.14c18,0,35.26-7.15,47.98-19.87,12.73-12.73,19.88-29.99,19.88-47.98s-7.15-35.26-19.88-47.98c-12.72-12.73-29.99-19.88-47.98-19.88s-35.26,7.15-47.98,19.88c-12.73,12.72-19.87,29.99-19.87,47.98s7.15,35.26,19.87,47.98,29.99,19.87,47.98,19.87Zm27.14-217.14c0,7.2-2.86,14.1-7.95,19.19-5.09,5.09-11.99,7.95-19.19,7.95s-14.1-2.86-19.19-7.95c-5.09-5.09-7.95-11.99-7.95-19.19s2.86-14.1,7.95-19.19c5.09-5.09,11.99-7.95,19.19-7.95s14.1,2.86,19.19,7.95c5.09,5.09,7.95,11.99,7.95,19.19Zm-27.14-81.43c7.2,0,14.1-2.86,19.19-7.95,5.09-5.09,7.95-11.99,7.95-19.19s-2.86-14.1-7.95-19.19c-5.09-5.09-11.99-7.95-19.19-7.95s-14.1,2.86-19.19,7.95c-5.09,5.09-7.95,11.99-7.95,19.19s2.86,14.1,7.95,19.19c5.09,5.09,11.99,7.95,19.19,7.95Z"/>
</svg>