<svg id="Capa_1" data-name="Capa 1" xmlns="http://www.w3.org/2000/svg" xmlns:xlink="http://www.w3.org/1999/xlink" viewBox="0 0 1452 596"><defs><style>.cls-1{fill:url(#Degradado_sin_nombre_60);}.cls-2{fill:url(#Degradado_sin_nombre_59);}.cls-3{fill:#378243;}.cls-4{fill:url(#Degradado_sin_nombre_13);}.cls-5{fill:url(#Degradado_sin_nombre_58);}.cls-6{fill:url(#Degradado_sin_nombre_57);}.cls-7{fill:url(#Degradado_sin_nombre_56);}.cls-8{fill:url(#Degradado_sin_nombre_54);}.cls-9{fill:url(#Degradado_sin_nombre_50);}.cls-10{fill:url(#Degradado_sin_nombre_47);}.cls-11{fill:url(#Degradado_sin_nombre_14);}.cls-12{fill:url(#Degradado_sin_nombre_12);}.cls-13{fill:#a88455;}.cls-14{fill:url(#Degradado_sin_nombre_17);}.cls-15{fill:url(#Degradado_sin_nombre_13-2);}.cls-16{fill:url(#Degradado_sin_nombre_17-2);}.cls-17{fill:#4f506f;}.cls-18{fill:url(#Degradado_sin_nombre_15);}.cls-19{fill:url(#Degradado_sin_nombre_16);}.cls-20{fill:url(#Degradado_sin_nombre_17-3);}.cls-21{fill:url(#Degradado_sin_nombre_18);}.cls-22{fill:url(#Degradado_sin_nombre_19);}.cls-23{fill:url(#Degradado_sin_nombre_11);}.cls-24{fill:url(#Degradado_sin_nombre_21);}.cls-25{fill:url(#Degradado_sin_nombre_22);}.cls-26{fill:#43abc1;}.cls-27{fill:url(#Degradado_sin_nombre_23);}.cls-28{fill:url(#Degradado_sin_nombre_10);}.cls-29{fill:url(#Degradado_sin_nombre_25);}.cls-30{fill:url(#Degradado_sin_nombre_26);}.cls-31{fill:url(#Degradado_sin_nombre_27);}.cls-32{fill:url(#Degradado_sin_nombre_28);}.cls-33{fill:url(#Degradado_sin_nombre_29);}.cls-34{fill:url(#Degradado_sin_nombre_9);}.cls-35{fill:url(#Degradado_sin_nombre_8);}.cls-36{fill:url(#Degradado_sin_nombre_7);}.cls-37{fill:url(#Degradado_sin_nombre_6);}.cls-38{fill:url(#Degradado_sin_nombre_34);}.cls-39{fill:url(#Degradado_sin_nombre_35);}.cls-40{fill:url(#Degradado_sin_nombre_36);}.cls-41{fill:url(#Degradado_sin_nombre_37);}.cls-42{fill:#324c63;}.cls-43{fill:url(#Degradado_sin_nombre_38);}.cls-44{fill:url(#Degradado_sin_nombre_39);}.cls-45{fill:url(#Degradado_sin_nombre_40);}.cls-46{fill:url(#Degradado_sin_nombre_41);}.cls-47{fill:url(#Degradado_sin_nombre_42);}.cls-48{fill:url(#Degradado_sin_nombre_43);}.cls-49{fill:url(#Degradado_sin_nombre_5);}.cls-50{fill:url(#Degradado_sin_nombre_45);}.cls-51{fill:url(#Degradado_sin_nombre_46);}.cls-52{fill:url(#Degradado_sin_nombre_48);}.cls-53{fill:url(#Degradado_sin_nombre_48-2);}.cls-54{fill:url(#Degradado_sin_nombre_3);}.cls-55{fill:#1f2146;}.cls-56{fill:url(#Degradado_sin_nombre_33);}.cls-57{fill:url(#Degradado_sin_nombre_30);}.cls-58{fill:url(#Degradado_sin_nombre_31);}.cls-59{fill:url(#Degradado_sin_nombre_32);}.cls-60{fill:#2c355a;}</style><linearGradient id="Degradado_sin_nombre_60" x1="425.85" y1="-3806.68" x2="414.23" y2="-3878.58" gradientTransform="matrix(1, 0, 0, -1, 0, -3558)" gradientUnits="userSpaceOnUse"><stop offset="0.02" stop-color="#bfca86"/><stop offset="0.22" stop-color="#a8bc8f"/><stop offset="0.53" stop-color="#8ba99c"/><stop offset="0.8" stop-color="#789ea3"/><stop offset="0.99" stop-color="#729aa6"/></linearGradient><linearGradient id="Degradado_sin_nombre_59" x1="417.55" y1="-3782.71" x2="481.02" y2="-3695.18" gradientTransform="matrix(1, 0, 0, -1, 0, -3558)" gradientUnits="userSpaceOnUse"><stop offset="0" stop-color="#ecc87c"/><stop offset="0.65" stop-color="#9ba58c"/><stop offset="0.92" stop-color="#6f4b33"/></linearGradient><linearGradient id="Degradado_sin_nombre_13" x1="267.6" y1="-4058.54" x2="290.28" y2="-3993.83" gradientTransform="matrix(1, 0, 0, -1, 0, -3558)" gradientUnits="userSpaceOnUse"><stop offset="0" stop-color="#e2bc71"/><stop offset="0.28" stop-color="#dab167"/><stop offset="0.76" stop-color="#c3944e"/><stop offset="0.99" stop-color="#b6843f"/></linearGradient><linearGradient id="Degradado_sin_nombre_58" x1="351.39" y1="-3943.48" x2="399.51" y2="-3845.58" gradientTransform="matrix(1, 0, 0, -1, 0, -3558)" gradientUnits="userSpaceOnUse"><stop offset="0.05" stop-color="#2a2c53"/><stop offset="0.16" stop-color="#35446f"/><stop offset="0.29" stop-color="#405a88"/><stop offset="0.4" stop-color="#466797"/><stop offset="0.5" stop-color="#486c9c"/><stop offset="0.77" stop-color="#416889"/><stop offset="0.98" stop-color="#507667"/></linearGradient><linearGradient id="Degradado_sin_nombre_57" x1="465.38" y1="-3684.03" x2="504.99" y2="-3665.36" gradientTransform="matrix(1, 0, 0, -1, 0, -3558)" gradientUnits="userSpaceOnUse"><stop offset="0.56" stop-color="#6e5765"/><stop offset="0.84" stop-color="#67555b"/><stop offset="1" stop-color="#625453"/></linearGradient><radialGradient id="Degradado_sin_nombre_56" cx="1250.9" cy="-1291.1" r="1.47" gradientTransform="matrix(45.6, 0, 0, -45.6, -56666.39, -58769.63)" gradientUnits="userSpaceOnUse"><stop offset="0.28" stop-color="#62d4c0"/><stop offset="0.62" stop-color="#54949b"/><stop offset="0.86" stop-color="#4b6c85"/><stop offset="0.99" stop-color="#485d7c"/></radialGradient><linearGradient id="Degradado_sin_nombre_54" x1="445.81" y1="-3684.89" x2="499.32" y2="-3663.53" gradientTransform="matrix(1, 0, 0, -1, 0, -3558)" gradientUnits="userSpaceOnUse"><stop offset="0.09" stop-color="#97857b"/><stop offset="0.4" stop-color="#99877d"/><stop offset="0.56" stop-color="#a18f84"/><stop offset="0.69" stop-color="#ae9c90"/><stop offset="0.8" stop-color="#c0afa2"/><stop offset="0.9" stop-color="#d8c8b8"/><stop offset="0.98" stop-color="#f5e6d3"/><stop offset="1" stop-color="#fbecd9"/></linearGradient><linearGradient id="Degradado_sin_nombre_50" x1="368.71" y1="-3687.24" x2="329.72" y2="-3737.43" gradientTransform="matrix(1, 0, 0, -1, 0, -3558)" gradientUnits="userSpaceOnUse"><stop offset="0" stop-color="#313d71"/><stop offset="0.13" stop-color="#3b527d"/><stop offset="0.37" stop-color="#4c7491"/><stop offset="0.61" stop-color="#588d9f"/><stop offset="0.82" stop-color="#5f9ca7"/><stop offset="0.99" stop-color="#62a1aa"/></linearGradient><radialGradient id="Degradado_sin_nombre_47" cx="1255.3" cy="-1282.26" r="1.47" gradientTransform="matrix(54.7, 0, 0, -54.7, -68243.37, -70057.03)" gradientUnits="userSpaceOnUse"><stop offset="0.01" stop-color="#cceae8"/><stop offset="0.16" stop-color="#c9e9e7"/><stop offset="0.25" stop-color="#c1e7e4"/><stop offset="0.33" stop-color="#b2e4de"/><stop offset="0.41" stop-color="#9ddfd6"/><stop offset="0.47" stop-color="#81d8cc"/><stop offset="0.54" stop-color="#60d1bf"/><stop offset="0.55" stop-color="#5acfbd"/></radialGradient><linearGradient id="Degradado_sin_nombre_14" x1="411.39" y1="-3727.78" x2="420.8" y2="-3762.63" gradientTransform="matrix(1, 0, 0, -1, 0, -3558)" gradientUnits="userSpaceOnUse"><stop offset="0.04" stop-color="#d1a75f"/><stop offset="0.56" stop-color="#ecc87c"/><stop offset="0.71" stop-color="#eac57a"/><stop offset="0.8" stop-color="#e3bd72"/><stop offset="0.88" stop-color="#d7af65"/><stop offset="0.94" stop-color="#c79b53"/><stop offset="1" stop-color="#b2823d"/></linearGradient><linearGradient id="Degradado_sin_nombre_12" x1="407.86" y1="-3812.6" x2="434.04" y2="-3683.5" gradientTransform="matrix(1, 0, 0, -1, 0, -3558)" gradientUnits="userSpaceOnUse"><stop offset="0" stop-color="#d8aa5c"/><stop offset="0.1" stop-color="#be955e"/><stop offset="0.28" stop-color="#937462"/><stop offset="0.43" stop-color="#785f64"/><stop offset="0.51" stop-color="#6e5765"/><stop offset="0.72" stop-color="#6e5663"/><stop offset="0.82" stop-color="#6e555b"/><stop offset="0.9" stop-color="#6e514e"/><stop offset="0.96" stop-color="#6e4d3c"/><stop offset="0.99" stop-color="#6e4a32"/></linearGradient><linearGradient id="Degradado_sin_nombre_17" x1="368.64" y1="-3797.76" x2="380.81" y2="-3765.12" gradientTransform="matrix(1, 0, 0, -1, 0, -3558)" gradientUnits="userSpaceOnUse"><stop offset="0" stop-color="#ecc87c"/><stop offset="1" stop-color="#b2823d"/></linearGradient><linearGradient id="Degradado_sin_nombre_13-2" x1="387.78" y1="-3794.85" x2="368.28" y2="-3823.89" xlink:href="#Degradado_sin_nombre_13"/><linearGradient id="Degradado_sin_nombre_17-2" x1="372.25" y1="-3811.13" x2="417.29" y2="-3811.13" xlink:href="#Degradado_sin_nombre_17"/><linearGradient id="Degradado_sin_nombre_15" x1="334.29" y1="-3906.57" x2="358.9" y2="-3854.85" gradientTransform="matrix(1, 0, 0, -1, 0, -3558)" gradientUnits="userSpaceOnUse"><stop offset="0.1" stop-color="#404565"/><stop offset="0.66" stop-color="#496068"/><stop offset="1" stop-color="#8a7055"/></linearGradient><linearGradient id="Degradado_sin_nombre_16" x1="359.08" y1="-3838.84" x2="315.66" y2="-3907.42" gradientTransform="matrix(1, 0, 0, -1, 0, -3558)" gradientUnits="userSpaceOnUse"><stop offset="0" stop-color="#cba566"/><stop offset="1" stop-color="#587a83"/></linearGradient><linearGradient id="Degradado_sin_nombre_17-3" x1="346.19" y1="-3715.53" x2="371.08" y2="-3736.82" xlink:href="#Degradado_sin_nombre_17"/><linearGradient id="Degradado_sin_nombre_18" x1="353.23" y1="-3760.47" x2="336.91" y2="-3733.93" gradientTransform="matrix(1, 0, 0, -1, 0, -3558)" gradientUnits="userSpaceOnUse"><stop offset="0.6" stop-color="#cfd0ae"/><stop offset="0.96" stop-color="#9ba57a"/></linearGradient><linearGradient id="Degradado_sin_nombre_19" x1="365.46" y1="-3736.33" x2="416.9" y2="-3684.89" gradientTransform="matrix(1, 0, 0, -1, 0, -3558)" gradientUnits="userSpaceOnUse"><stop offset="0.43" stop-color="#ecc87c"/><stop offset="0.56" stop-color="#f8cd73"/><stop offset="0.71" stop-color="#ffd16d"/><stop offset="0.85" stop-color="#daab56"/><stop offset="1" stop-color="#b2823d"/></linearGradient><linearGradient id="Degradado_sin_nombre_11" x1="384.64" y1="-3749.04" x2="345.92" y2="-3781.95" gradientTransform="matrix(1, 0, 0, -1, 0, -3558)" gradientUnits="userSpaceOnUse"><stop offset="0" stop-color="#ecc87c"/><stop offset="1" stop-color="#9ba58c"/></linearGradient><linearGradient id="Degradado_sin_nombre_21" x1="276.77" y1="-3900.88" x2="256.23" y2="-3891.76" gradientTransform="matrix(1, 0, 0, -1, 0, -3558)" gradientUnits="userSpaceOnUse"><stop offset="0" stop-color="#bae4e2"/><stop offset="1" stop-color="#7ec2cd"/></linearGradient><linearGradient id="Degradado_sin_nombre_22" x1="275.84" y1="-3878.24" x2="318.93" y2="-3843.14" gradientTransform="matrix(1, 0, 0, -1, 0, -3558)" gradientUnits="userSpaceOnUse"><stop offset="0" stop-color="#53bec8"/><stop offset="1" stop-color="#2a3e63"/></linearGradient><linearGradient id="Degradado_sin_nombre_23" x1="266.49" y1="-3904.58" x2="245.08" y2="-3960.8" gradientTransform="matrix(1, 0, 0, -1, 0, -3558)" gradientUnits="userSpaceOnUse"><stop offset="0" stop-color="#82c8ea"/><stop offset="1" stop-color="#314578"/></linearGradient><linearGradient id="Degradado_sin_nombre_10" x1="262.58" y1="-3998.84" x2="265.82" y2="-3918.18" gradientTransform="matrix(1, 0, 0, -1, 0, -3558)" gradientUnits="userSpaceOnUse"><stop offset="0" stop-color="#2c2a52"/><stop offset="1" stop-color="#4680ae"/></linearGradient><linearGradient id="Degradado_sin_nombre_25" x1="344.44" y1="-3796.19" x2="228.39" y2="-3711.15" gradientTransform="matrix(1, 0, 0, -1, 0, -3558)" gradientUnits="userSpaceOnUse"><stop offset="0.04" stop-color="#54ac94"/><stop offset="0.15" stop-color="#83c4b0"/><stop offset="0.27" stop-color="#afdbcb"/><stop offset="0.38" stop-color="#cfebde"/><stop offset="0.48" stop-color="#e2f5ea"/><stop offset="0.54" stop-color="#e9f9ee"/><stop offset="0.62" stop-color="#e2f5e6"/><stop offset="0.74" stop-color="#cdecd1"/><stop offset="0.89" stop-color="#addcaf"/><stop offset="1" stop-color="#92cf94"/></linearGradient><linearGradient id="Degradado_sin_nombre_26" x1="336.51" y1="-3809.64" x2="200.68" y2="-3706.53" gradientTransform="matrix(1, 0, 0, -1, 0, -3558)" gradientUnits="userSpaceOnUse"><stop offset="0.04" stop-color="#487ba6"/><stop offset="0.54" stop-color="#85c4d3"/><stop offset="0.62" stop-color="#75b2bd"/><stop offset="0.79" stop-color="#578e91"/><stop offset="0.92" stop-color="#447776"/><stop offset="1" stop-color="#3d6f6c"/></linearGradient><linearGradient id="Degradado_sin_nombre_27" x1="296.82" y1="-3815.2" x2="351.42" y2="-3827.95" gradientTransform="matrix(1, 0, 0, -1, 0, -3558)" gradientUnits="userSpaceOnUse"><stop offset="0" stop-color="#32456d"/><stop offset="0.28" stop-color="#2e3c59"/><stop offset="0.47" stop-color="#2c3852"/><stop offset="1" stop-color="#2f3c4f"/></linearGradient><linearGradient id="Degradado_sin_nombre_28" x1="208.65" y1="-3718.27" x2="283.03" y2="-3809.78" gradientTransform="matrix(1, 0, 0, -1, 0, -3558)" gradientUnits="userSpaceOnUse"><stop offset="0.01" stop-color="#3a4c7a"/><stop offset="0.06" stop-color="#3c5481"/><stop offset="0.22" stop-color="#436996"/><stop offset="0.38" stop-color="#4777a2"/><stop offset="0.52" stop-color="#487ba6"/><stop offset="0.64" stop-color="#426d98"/><stop offset="0.86" stop-color="#344873"/><stop offset="1" stop-color="#292e58"/></linearGradient><linearGradient id="Degradado_sin_nombre_29" x1="285.14" y1="-3808.95" x2="299.98" y2="-3808.76" gradientTransform="matrix(1, 0, 0, -1, 0, -3558)" gradientUnits="userSpaceOnUse"><stop offset="0" stop-color="#4e90c0"/><stop offset="0.29" stop-color="#4a86b4"/><stop offset="0.8" stop-color="#416c96"/><stop offset="0.99" stop-color="#3d6088"/></linearGradient><linearGradient id="Degradado_sin_nombre_9" x1="209.01" y1="-3714.46" x2="9.1" y2="-3601.7" gradientTransform="matrix(1, 0, 0, -1, 0, -3558)" gradientUnits="userSpaceOnUse"><stop offset="0.09" stop-color="#ac9d64"/><stop offset="0.13" stop-color="#90a17a"/><stop offset="0.21" stop-color="#6aa797"/><stop offset="0.27" stop-color="#53aba8"/><stop offset="0.3" stop-color="#4aacaf"/><stop offset="0.34" stop-color="#6cc1c0"/><stop offset="0.39" stop-color="#87d2ce"/><stop offset="0.43" stop-color="#9bded8"/><stop offset="0.48" stop-color="#a7e6de"/><stop offset="0.53" stop-color="#abe8e0"/><stop offset="0.59" stop-color="#91d8d3"/><stop offset="0.73" stop-color="#5eb8b9"/><stop offset="0.79" stop-color="#4aacaf"/><stop offset="0.94" stop-color="#56adaa"/><stop offset="0.99" stop-color="#5caea8"/></linearGradient><linearGradient id="Degradado_sin_nombre_8" x1="193.65" y1="-3721.54" x2="33.28" y2="-3631.08" gradientTransform="matrix(1, 0, 0, -1, 0, -3558)" gradientUnits="userSpaceOnUse"><stop offset="0.01" stop-color="#385469"/><stop offset="0.06" stop-color="#3b6475"/><stop offset="0.19" stop-color="#41818d"/><stop offset="0.31" stop-color="#46979e"/><stop offset="0.44" stop-color="#48a4a9"/><stop offset="0.55" stop-color="#49a8ac"/><stop offset="0.69" stop-color="#49a5aa"/><stop offset="0.78" stop-color="#479ca4"/><stop offset="0.86" stop-color="#458d99"/><stop offset="0.93" stop-color="#42778b"/><stop offset="1" stop-color="#3f5d79"/></linearGradient><linearGradient id="Degradado_sin_nombre_7" x1="224.96" y1="-3764.73" x2="58.69" y2="-3703.1" gradientTransform="matrix(1, 0, 0, -1, 0, -3558)" gradientUnits="userSpaceOnUse"><stop offset="0.01" stop-color="#56506c"/><stop offset="0.11" stop-color="#5e5f79"/><stop offset="0.31" stop-color="#73869c"/><stop offset="0.5" stop-color="#89b0c1"/><stop offset="0.64" stop-color="#8aafbe"/><stop offset="0.73" stop-color="#8cacb5"/><stop offset="0.81" stop-color="#91a7a6"/><stop offset="0.89" stop-color="#979f90"/><stop offset="0.96" stop-color="#9e9574"/><stop offset="1" stop-color="#a48e5f"/></linearGradient><linearGradient id="Degradado_sin_nombre_6" x1="232.83" y1="-3774.94" x2="67.13" y2="-3724.14" gradientTransform="matrix(1, 0, 0, -1, 0, -3558)" gradientUnits="userSpaceOnUse"><stop offset="0" stop-color="#35446b"/><stop offset="0.13" stop-color="#3c507a"/><stop offset="0.38" stop-color="#4d6ea1"/><stop offset="0.49" stop-color="#567db4"/><stop offset="0.63" stop-color="#66738e"/><stop offset="0.79" stop-color="#756b6b"/><stop offset="0.92" stop-color="#7f6556"/><stop offset="1" stop-color="#82634e"/></linearGradient><linearGradient id="Degradado_sin_nombre_34" x1="254.37" y1="-3786.92" x2="87.15" y2="-3781.75" gradientTransform="matrix(1, 0, 0, -1, 0, -3558)" gradientUnits="userSpaceOnUse"><stop offset="0" stop-color="#38606a"/><stop offset="0.11" stop-color="#3b646d"/><stop offset="0.23" stop-color="#447177"/><stop offset="0.35" stop-color="#528588"/><stop offset="0.47" stop-color="#67a29f"/><stop offset="0.59" stop-color="#81c8bc"/><stop offset="0.69" stop-color="#9becd9"/><stop offset="0.87" stop-color="#69bdac"/><stop offset="1" stop-color="#4aa191"/></linearGradient><linearGradient id="Degradado_sin_nombre_35" x1="238.46" y1="-3795.65" x2="136.88" y2="-3792.51" gradientTransform="matrix(1, 0, 0, -1, 0, -3558)" gradientUnits="userSpaceOnUse"><stop offset="0.01" stop-color="#3d586b"/><stop offset="0.12" stop-color="#466f86"/><stop offset="0.26" stop-color="#5089a5"/><stop offset="0.38" stop-color="#5699b8"/><stop offset="0.47" stop-color="#589fbf"/><stop offset="0.65" stop-color="#4b7fa0"/><stop offset="0.89" stop-color="#385074"/></linearGradient><linearGradient id="Degradado_sin_nombre_36" x1="187.32" y1="-3848.85" x2="254.25" y2="-3794.85" gradientTransform="matrix(1, 0, 0, -1, 0, -3558)" gradientUnits="userSpaceOnUse"><stop offset="0.01" stop-color="#3a4c7a"/><stop offset="0.11" stop-color="#3d5784"/><stop offset="0.47" stop-color="#487ba6"/><stop offset="0.82" stop-color="#32446e"/><stop offset="1" stop-color="#292e58"/></linearGradient><linearGradient id="Degradado_sin_nombre_37" x1="263.55" y1="-3806.94" x2="196.97" y2="-3841.37" gradientTransform="matrix(1, 0, 0, -1, 0, -3558)" gradientUnits="userSpaceOnUse"><stop offset="0.01" stop-color="#2b3559"/><stop offset="0.44" stop-color="#395f8c"/><stop offset="1" stop-color="#293155"/></linearGradient><linearGradient id="Degradado_sin_nombre_38" x1="307.59" y1="-3826.92" x2="279.9" y2="-3847.46" gradientTransform="matrix(1, 0, 0, -1, 0, -3558)" gradientUnits="userSpaceOnUse"><stop offset="0" stop-color="#26284f"/><stop offset="1" stop-color="#2d376c"/></linearGradient><linearGradient id="Degradado_sin_nombre_39" x1="254.06" y1="-3862.87" x2="279.17" y2="-3842.61" gradientTransform="matrix(1, 0, 0, -1, 0, -3558)" gradientUnits="userSpaceOnUse"><stop offset="0.01" stop-color="#355a74"/><stop offset="1" stop-color="#273750"/></linearGradient><linearGradient id="Degradado_sin_nombre_40" x1="298.85" y1="-4007.68" x2="322.29" y2="-4098.11" gradientTransform="matrix(1, 0, 0, -1, 0, -3558)" gradientUnits="userSpaceOnUse"><stop offset="0.01" stop-color="#6c4b42"/><stop offset="0.13" stop-color="#85644e"/><stop offset="0.4" stop-color="#c6a46b"/><stop offset="0.5" stop-color="#e0bd77"/><stop offset="0.69" stop-color="#f6e19a"/><stop offset="0.86" stop-color="#e8c67c"/><stop offset="0.96" stop-color="#e2bc71"/></linearGradient><linearGradient id="Degradado_sin_nombre_41" x1="304.15" y1="-4110.75" x2="261.01" y2="-3964.73" gradientTransform="matrix(1, 0, 0, -1, 0, -3558)" gradientUnits="userSpaceOnUse"><stop offset="0.06" stop-color="#cfa35d"/><stop offset="0.24" stop-color="#f9e59e"/><stop offset="0.29" stop-color="#e7c982"/><stop offset="0.34" stop-color="#dbb770"/><stop offset="0.38" stop-color="#d7b06a"/><stop offset="0.41" stop-color="#c6a269"/><stop offset="0.53" stop-color="#977967"/><stop offset="0.61" stop-color="#796066"/><stop offset="0.66" stop-color="#6e5765"/></linearGradient><linearGradient id="Degradado_sin_nombre_42" x1="310.58" y1="-3992.62" x2="373.63" y2="-4051.53" gradientTransform="matrix(1, 0, 0, -1, 0, -3558)" gradientUnits="userSpaceOnUse"><stop offset="0" stop-color="#3c4f6f"/><stop offset="0.1" stop-color="#3e5371"/><stop offset="0.22" stop-color="#436075"/><stop offset="0.33" stop-color="#4c767d"/><stop offset="0.45" stop-color="#599488"/><stop offset="0.47" stop-color="#5b998a"/><stop offset="0.71" stop-color="#46b89e"/><stop offset="1" stop-color="#5b998a"/></linearGradient><linearGradient id="Degradado_sin_nombre_43" x1="318.4" y1="-3971.46" x2="388.92" y2="-4049.45" gradientTransform="matrix(1, 0, 0, -1, 0, -3558)" gradientUnits="userSpaceOnUse"><stop offset="0" stop-color="#3c4f6f"/><stop offset="0.15" stop-color="#3c536f"/><stop offset="0.31" stop-color="#3d606e"/><stop offset="0.47" stop-color="#3f746c"/><stop offset="0.71" stop-color="#bee4cb"/><stop offset="1" stop-color="#5b998a"/></linearGradient><linearGradient id="Degradado_sin_nombre_5" x1="311.9" y1="-4009.12" x2="356.7" y2="-4089.6" gradientTransform="matrix(1, 0, 0, -1, 0, -3558)" gradientUnits="userSpaceOnUse"><stop offset="0.05" stop-color="#2a2c53"/><stop offset="0.16" stop-color="#35446f"/><stop offset="0.29" stop-color="#405a88"/><stop offset="0.4" stop-color="#466797"/><stop offset="0.5" stop-color="#486c9c"/><stop offset="0.77" stop-color="#416889"/><stop offset="0.98" stop-color="#55547c"/></linearGradient><radialGradient id="Degradado_sin_nombre_45" cx="1126.68" cy="-1552.08" r="1.47" gradientTransform="matrix(7.62, 0, 0, -7.62, -8180.73, -11686.04)" gradientUnits="userSpaceOnUse"><stop offset="0.73" stop-color="#272c54"/><stop offset="0.77" stop-color="#2e4e68"/><stop offset="0.81" stop-color="#336877"/><stop offset="0.86" stop-color="#377b82"/><stop offset="0.9" stop-color="#398689"/><stop offset="0.94" stop-color="#3a8a8b"/></radialGradient><radialGradient id="Degradado_sin_nombre_46" cx="1154.32" cy="-1494.21" r="1.47" gradientTransform="matrix(9.33, 0, 0, -9.33, -10363.26, -13816.66)" gradientUnits="userSpaceOnUse"><stop offset="0.3" stop-color="#fff"/><stop offset="0.34" stop-color="#fff" stop-opacity="0.93"/><stop offset="0.53" stop-color="#fff" stop-opacity="0.6"/><stop offset="0.69" stop-color="#fff" stop-opacity="0.34"/><stop offset="0.83" stop-color="#fff" stop-opacity="0.16"/><stop offset="0.93" stop-color="#fff" stop-opacity="0.04"/><stop offset="0.99" stop-color="#fff" stop-opacity="0"/></radialGradient><linearGradient id="Degradado_sin_nombre_48" x1="345.97" y1="-3688.03" x2="372.24" y2="-3730.06" gradientTransform="matrix(1, 0, 0, -1, 0, -3558)" gradientUnits="userSpaceOnUse"><stop offset="0.01" stop-color="#5b998a"/><stop offset="0.05" stop-color="#599488"/><stop offset="0.3" stop-color="#4c767d"/><stop offset="0.54" stop-color="#436075"/><stop offset="0.78" stop-color="#3e5371"/><stop offset="1" stop-color="#3c4f6f"/></linearGradient><linearGradient id="Degradado_sin_nombre_48-2" x1="352.94" y1="-3675.53" x2="405.41" y2="-3675.73" xlink:href="#Degradado_sin_nombre_48"/><linearGradient id="Degradado_sin_nombre_3" x1="312.71" y1="-3955.44" x2="290.1" y2="-3999.42" gradientTransform="matrix(1, 0, 0, -1, 0, -3558)" gradientUnits="userSpaceOnUse"><stop offset="0" stop-color="#1d1d3f"/><stop offset="1" stop-color="#2b5063"/></linearGradient><linearGradient id="Degradado_sin_nombre_33" x1="593.24" y1="954.06" x2="562.74" y2="269.76" gradientUnits="userSpaceOnUse"><stop offset="0.22" stop-color="#0a494a"/><stop offset="0.34" stop-color="#0f504e"/><stop offset="0.52" stop-color="#1d6559"/><stop offset="0.75" stop-color="#33866a"/><stop offset="1" stop-color="#52b583"/><stop offset="1" stop-color="#52b583"/></linearGradient><linearGradient id="Degradado_sin_nombre_30" x1="752.28" y1="946.97" x2="721.78" y2="262.67" gradientUnits="userSpaceOnUse"><stop offset="0.23" stop-color="#0a494a"/><stop offset="0.35" stop-color="#0f504e"/><stop offset="0.53" stop-color="#1d6559"/><stop offset="0.75" stop-color="#33866a"/><stop offset="1" stop-color="#52b583"/><stop offset="1" stop-color="#52b583"/></linearGradient><linearGradient id="Degradado_sin_nombre_31" x1="897.68" y1="940.49" x2="867.18" y2="256.19" gradientUnits="userSpaceOnUse"><stop offset="0.22" stop-color="#0a494a"/><stop offset="0.34" stop-color="#0f504e"/><stop offset="0.52" stop-color="#1d6559"/><stop offset="0.75" stop-color="#33866a"/><stop offset="1" stop-color="#52b583"/><stop offset="1" stop-color="#52b583"/></linearGradient><linearGradient id="Degradado_sin_nombre_32" x1="1043.23" y1="934.01" x2="1012.73" y2="249.7" gradientUnits="userSpaceOnUse"><stop offset="0.18" stop-color="#0a494a"/><stop offset="0.31" stop-color="#0f504e"/><stop offset="0.5" stop-color="#1d6559"/><stop offset="0.74" stop-color="#33866a"/><stop offset="1" stop-color="#52b583"/><stop offset="1" stop-color="#52b583"/></linearGradient></defs><path class="cls-1" d="M417.94,272.21a128.54,128.54,0,0,1-7.46,51,124.93,124.93,0,0,1-6.12,14.35c.77-1.1,1.52-2.2,2.23-3.29,12-18.39,16.77-36.33,18.81-44a137.48,137.48,0,0,0,5-40.45c-.29-9.57-1.47-13.47-2.3-18.91l-10,38.09C418.05,270.05,418,271.12,417.94,272.21Z"/><path class="cls-2" d="M443.45,145.9A74.19,74.19,0,0,0,426,172a120,120,0,0,0-6.22,21.16c-2.65,13.49-2,22.72-1.87,39.2.08,8.81.62,21.43.13,36.6l10-38.09a74.42,74.42,0,0,1-.81-10.34c-.34-20.67,5.29-36.62,8.71-46,6.13-16.88,12.39-29,19.14-38.08.36-.49.72-1,1.08-1.43l2.55-1.25-1-.17A137.6,137.6,0,0,0,443.45,145.9Z"/><path class="cls-3" d="M416,276.73l-.54,2C415.66,278.12,415.85,277.42,416,276.73Z"/><path class="cls-3" d="M416,276.73l-.54,2C415.66,278.12,415.85,277.42,416,276.73Z"/><path class="cls-4" d="M311.36,406.89a21.46,21.46,0,0,0-3.24,1.9A113,113,0,0,0,276.38,443a135.38,135.38,0,0,0-10.58,24.89,114.94,114.94,0,0,0-2.48,19.91,79.59,79.59,0,0,0,1.24,20.53c1.09,5.27,2.08,6.88,5,15.56.45,1.35,1,2.89,1.5,4.6l0,.07a234.07,234.07,0,0,1,1.22-36.78c2.06-18.14,6.84-39.67,17.45-57.81a125.31,125.31,0,0,1,18.67-24.26c.89-.86,1.77-1.68,2.63-2.46l.57-.49Z"/><path class="cls-5" d="M417.94,272.21c.05-1.09.09-2.16.13-3.22l-1,3.78-.32,1.24-.72,2.75c-.18.7-.37,1.39-.54,2v.06l-.27,1.05-.1.37-.11.39-.07.26V281a212.56,212.56,0,0,1-21.22,40.36A97.33,97.33,0,0,1,376,339.76a88.92,88.92,0,0,1-8.75,6.17,547,547,0,0,0-44.76,47.34q-5.75,6.89-11.06,13.65l.26-.11c.57-.51,1.13-1,1.69-1.46,9.27-7.81,17.89-11.88,28.71-18,20.11-11.36,33-19.14,46.05-31.11a114.52,114.52,0,0,0,16.24-18.66,124.27,124.27,0,0,0,6.11-14.36A128.34,128.34,0,0,0,417.94,272.21Z"/><path class="cls-6" d="M438.94,133.83c11.88-.8,17-.62,19.82,0,29.35-13.95,60.63-28.74,89.85-42.65l-8.23,2.44Z"/><path class="cls-7" d="M450.3,122.62l-12.82,11.3c-5.87.41-13.25,1.06-22.65,2-11.45,1.15-21,2.26-28,3.11l-19.91,10L347,183.84l-28.89,28.88-2.54-2.44-.25-.3a38.27,38.27,0,0,0,3.85-3.23,42.51,42.51,0,0,0,5.74-3.93A43.54,43.54,0,0,0,337.05,187a113.63,113.63,0,0,0,7.16-15.87c2-5.48,2.41-8.08,5-14.93,2.23-6,3.35-8.93,5-11.82,5.87-10.38,14.78-15.86,19.29-18.67a65,65,0,0,1,21.47-8.4,32.68,32.68,0,0,1,15.87-.31c7.41,1.8,8.85,5.25,17.73,7.15a39.86,39.86,0,0,0,13.07.63A38.46,38.46,0,0,0,450.3,122.62Z"/><path class="cls-3" d="M436.61,134.7l.87-.77Z"/><path class="cls-3" d="M436.61,134.7l.87-.77Z"/><path class="cls-8" d="M438.94,133.83,540.37,93.58l-86,25.47-16.86,14.87Z"/><path class="cls-9" d="M334.25,165.5c-4.4,14-4,20.16-7.47,29.86-1.53,4.3-5,8.54-7.6,11.4a41.61,41.61,0,0,0,5.74-3.93A43.45,43.45,0,0,0,337.05,187a113.51,113.51,0,0,0,7.16-15.86c2-5.49,2.41-8.09,5-14.94,2.24-5.95,3.35-8.93,5-11.82a45.36,45.36,0,0,1,9.43-11.53l-19.73,9.42A146.14,146.14,0,0,0,334.25,165.5Z"/><path class="cls-10" d="M454,119.14a56.12,56.12,0,0,1-12.44-2.49c-10.82-3.48-14.36-8.31-23-11.2a40.86,40.86,0,0,0-19.91-1.24l-39.82,2.48,13.66,5.6c3.27.77,6.11,1.25,8.43,1.57,7.12,1,12,.78,21.42,2.33a30,30,0,0,1,8.45.78c7.42,1.8,8.85,5.26,17.73,7.16a39.58,39.58,0,0,0,13.07.62,38,38,0,0,0,8.71-2.12l4-3.57Z"/><path class="cls-3" d="M244.34,466.61c.31-1,.33-1.14,0,0Z"/><path class="cls-11" d="M381,183.48l10.62,25.91,44.44-74.25Z"/><path class="cls-12" d="M438.94,133.83l-1.46.1-.87.77-.52.46-44.43,74.23,25.64,62.53.77-2.93c.49-15.17-.05-27.79-.13-36.6-.15-16.48-.78-25.71,1.87-39.2A120,120,0,0,1,426,172a74.19,74.19,0,0,1,17.42-26.13,135.92,135.92,0,0,1,14.32-12.27C454.79,133.2,449.56,133.11,438.94,133.83Z"/><path class="cls-13" d="M372.69,297.13l.14.28.56,44.27c.83-.62,1.67-1.25,2.55-2a96.92,96.92,0,0,0,17.73-18.35A212.63,212.63,0,0,0,414.9,281v-.13l.07-.26.1-.4.1-.36.28-1.05v-.06l.53-2c.43-1.62.84-3.2,1-3.74l.18-.68Z"/><path class="cls-14" d="M390.5,206.56,381,183.48l-.43.37-28.33,69.59,37.36-42.55,1.8-2Z"/><path class="cls-15" d="M391.44,208.85l-1.8,2-37.36,42.55-.3.73-.4.74,20.67,41.35,19.3-87.13Z"/><path class="cls-16" d="M391.55,209.13l-19.3,87.13.22.43.22.44,44.5-24.84.1-.37Z"/><path class="cls-17" d="M286.13,373.69q-4.29,6.69-8.58,13.8l-.62,1c-4.88,8.09-9.76,16.62-14.57,25.55-5.72,10.58-9.45,22.17-12.68,33.47q-.94,3.3-1.84,6.57c1.24-3,2.66-6.08,4.26-9.24,10-19.77,22-32.35,29.86-40.44,12.65-13,24.13-21.16,33-27.38a395.12,395.12,0,0,1,35.47-21.78c10.14-5.6,15.56-8.2,22.08-12.95l-84.71,28.42Z"/><path class="cls-18" d="M372.69,297.13,287.93,370.7l84.58-28.37.88-.63-.56-44.26Z"/><path class="cls-19" d="M372.69,297.13l-21.11-42.22-63.8,115.84.15-.05Z"/><path class="cls-3" d="M380.69,183.68h0v0Z"/><path class="cls-20" d="M367.49,148.72l-.57.29L347,183.85l-.76.76,34.4-.93Z"/><path class="cls-21" d="M380.64,183.68l-34.39.93-26.61,26.61,61-27.52Z"/><path class="cls-3" d="M380.81,183.68l.11-.1-.23.1Z"/><path class="cls-22" d="M437.48,133.92c-5.86.41-13.25,1.06-22.65,2-11.45,1.15-21,2.26-28,3.11l-19.34,9.67,13.16,35h.06l.24-.11,55.69-48.88Z"/><path class="cls-3" d="M380.65,183.7l0,.09.13-.11h-.12Z"/><path class="cls-23" d="M319.63,211.22l-1.51,1.52,34.05,41,28.44-69.86.07-.07,0-.08Z"/><path class="cls-24" d="M275.74,339.05l-8.39-30.62-.85.51a381.44,381.44,0,0,0-15.94,52.27,2,2,0,0,1-.06.27l24.64-21.74Z"/><path class="cls-25" d="M350,255.4l-74.28,83.65-8.39-30.62,5-3.05q5-3,10.11-6.18l4.5-2.78q7.26-4.51,14.6-9.16c2.17-1.38,4.35-2.76,6.53-4.16l5.39-3.47c1.79-1.15,3.58-2.31,5.35-3.47l4.32-2.82,4.16-2.73q4.35-2.85,8.6-5.7,4.53-3,9-6.06Z"/><path class="cls-26" d="M350,255.4l-74.29,83.65,9.77,35.68c.22-.35.43-.7.62-1L352,254.17,352,254Z"/><path class="cls-27" d="M274.65,340.15,250.5,361.47a370.91,370.91,0,0,0-8,75.29c4.05-16.7,8.35-34.85,14.61-52.21C262.75,368.84,268.65,354.05,274.65,340.15Z"/><path class="cls-28" d="M275.74,339.05l-.62.67-.49.43c-6,13.9-11.9,28.69-17.55,44.38-6.26,17.36-10.58,35.51-14.62,52.21A259.29,259.29,0,0,0,244.2,467c0-.15.09-.29.12-.41.32-1,.34-1.14,0,0a30.58,30.58,0,0,0,1.47-5.1,2.26,2.26,0,0,1-.08.3,1.32,1.32,0,0,1,.08-.33c.69-2.42,1.37-4.89,2.06-7.37q.9-3.27,1.86-6.57c3.23-11.3,7-22.87,12.69-33.47,4.81-8.93,9.69-17.42,14.57-25.55l.62-1q4-6.51,7.92-12.73Z"/><path class="cls-29" d="M351.62,253.05l-33.5-40.31-2.53-2.44-.26-.31c-1.5-1.8-9.26-11.14-10.95-13.38-6.22-6.85-56-33.6-56-33.6l-64-37.3,11,10.88c25.84,21.6,53.42,43.58,82.87,65.62C303,220.74,327.73,237.21,351.62,253.05Z"/><path class="cls-30" d="M352.09,253.58,292,227.1l-17.42-12.45-79.16-78.06c25.84,21.6,53.42,43.58,82.87,65.62,24.75,18.53,49.48,35,73.37,50.84Z"/><path class="cls-31" d="M352.17,253.71,352,254c-.67.46-1.34.92-2,1.37l-5.08,3.45q-4.47,3-9,6.06l-8.6,5.7-4.16,2.73-4.32,2.82c-1.77,1.16-3.56,2.31-5.35,3.47l-5.39,3.47-6.53,4.16-.08-.08-9.45-59.3-.12-.77,60.15,26.47Z"/><path class="cls-3" d="M344.94,258.85c-3,2-6,4-9,6.06Q340.47,261.88,344.94,258.85Z"/><path class="cls-32" d="M300.13,285.79l-59.84-59.94-52.47-93.44.19.11-2.15-3.93-1.59-2.92.06,0,11,10.88,79.16,78.06L275,216Z"/><path class="cls-33" d="M301.51,287.18l-1.38-1.39L275,216l-.49-1.37,17.42,12.45.12.76Z"/><path class="cls-34" d="M77.58,95.49c51.3,35.2,93.74,48.38,127.59,67.78l-17.35-30.86c-4.28-2.64-88.63-54.51-128.31-74.87L15.33,32.65c.2.56.41,1.11.63,1.67C30.9,53.65,50,76.58,77.58,95.49Z"/><path class="cls-35" d="M205.17,163.27c-33.85-19.4-76.29-32.58-127.56-67.78C50,76.58,30.94,53.62,16,34.32A241.65,241.65,0,0,0,47.12,93.63C64.63,117.89,79,127.52,84.45,131c2.49,1.56,54,27.32,57.87,29.25q31.13,15.28,62.3,30.56l20.94,8.85Z"/><path class="cls-36" d="M109.53,175.51c47.61,18.44,90.23,28,122.84,36.22l-6.8-12.11-20.95-8.85c.38.18-105.27-40.52-105.27-40.52L45.21,128.47,55.07,143a368.9,368.9,0,0,0,44.86,28.17A89.31,89.31,0,0,0,109.53,175.51Z"/><path class="cls-37" d="M240.29,225.85l-7.92-14.12c-32.64-8.2-75.23-17.78-122.84-36.22a89.31,89.31,0,0,1-9.6-4.39A369.56,369.56,0,0,1,55.08,143l20.63,30.32a76.13,76.13,0,0,0,42.93,28l46.67,10.58,52.55,11.75,15.19,2.34,7.27-.06Z"/><path class="cls-38" d="M254,239.62l-13.69-13.74-7.28.06-15.19-2.34.35.08L87.56,210.61l1.12.77c16.8,9.3,39.82,20.53,75.72,26.92C206.57,242.24,246.71,240.07,254,239.62Z"/><path class="cls-39" d="M254,239.62c-7.33.45-47.47,2.62-89.66-1.32-35.88-6.36-58.95-17.62-75.73-26.92l48.66,33.45a67.56,67.56,0,0,0,16.8,8.71,69.07,69.07,0,0,0,32.36,3.12l49.61-3.74,22.79-8.47Z"/><path class="cls-40" d="M212.29,278.74c28.05-7.89,44.42-18.89,54.53-26.31l-7.95-8-22.79,8.46h.17l-61.5,22.34C185.07,278,201.58,281.76,212.29,278.74Z"/><path class="cls-41" d="M275.56,261.15l-8.72-8.71c-10.11,7.41-26.48,18.41-54.53,26.31-10.71,3-27.22-.77-37.52-3.47l-.12.05,28.62,14.31a24.59,24.59,0,0,0,21.78-1.24L258.67,271Z"/><path class="cls-42" d="M275.53,261.15,258.64,271l-9,23.37,34.2-24.92Z"/><path class="cls-43" d="M301.51,287.18l-1.38-1.39L285.67,271.3l-19,37.55.71-.42,5-3.05q5-3,10.11-6.18l4.5-2.78q7.26-4.51,14.6-9.16Z"/><path class="cls-44" d="M283.81,269.45l-34.22,24.92-1.54,4,18.67,9.95-.24.62.15-.09,19-37.55Z"/><path class="cls-45" d="M293.54,428c-1.27,1.9-2.54,3.91-3.78,6s-2.49,4.45-3.6,6.72c2.87,17.82,6.34,38.29,12,58.31,5.07,17.89,11.77,35.16,18.2,50.66l.47.36a110.66,110.66,0,0,1,13.69-30.46c-5.6-14.11-12.4-28.79-18-43.58C306.13,459.3,300.1,443,293.54,428Z"/><path class="cls-46" d="M286.16,440.71c-8.13,16.59-12,35.15-13.85,51.08q4.83,18.56,9.67,37.1c4.89,2.24,10.12,4.91,15.56,8.08a175.77,175.77,0,0,1,18.82,12.71c-6.43-15.5-13.13-32.77-18.2-50.66C292.5,479,289,458.53,286.16,440.71Z"/><path class="cls-47" d="M357.36,497.79a120.7,120.7,0,0,1,33.46,10.54c-10.62-15-23.2-30.75-37-46.94a650,650,0,0,0-47.18-49.88c-1.31,1.38-3.26,3.51-5.54,6.27Q315.77,437.4,330.49,458C339.88,471,348.7,484.56,357.36,497.79Z"/><path class="cls-48" d="M353.85,461.37c13.77,16.18,26.35,32,37,46.95l.06,0c-1.25-7.61-2.85-15.73-5-24.26-1.36-5.45-2.83-10.64-4.36-15.56l-68.23-63.22c-1.6,1.35-3.23,2.81-4.88,4.42,0,0-.62.62-1.74,1.78A649.4,649.4,0,0,1,353.85,461.37Z"/><path class="cls-49" d="M330.52,458q-14.72-20.54-29.36-40.17c-2.32,2.81-5,6.26-7.62,10.2,6.56,15,12.59,31.32,18.93,48,5.6,14.8,12.4,29.48,18,43.59v0a128.58,128.58,0,0,1,14.31,10.58,127.22,127.22,0,0,1,14.31,14.31,116.34,116.34,0,0,0-1.87-46.67h.09C348.7,484.56,339.88,471,330.52,458Z"/><path class="cls-50" d="M400.83,146.83a11.2,11.2,0,1,0-11.2-11.2A11.2,11.2,0,0,0,400.83,146.83Z"/><path class="cls-51" d="M406.64,128.74c0,1.21-1.4,2.26-3.51,2.34-2.69.11-5.36-1.34-5.21-3.21s2.86-2.61,5.38-2C405.3,126.31,406.64,127.56,406.64,128.74Z"/><path class="cls-52" d="M362.87,121.94c-2.75.2-5.35.53-7.78.94l-34.22,28,23-8.71,0,.07,19.73-9.42a68.44,68.44,0,0,1,9.87-7.14,60.47,60.47,0,0,1,5.91-3.24A81.89,81.89,0,0,0,362.87,121.94Z"/><path class="cls-53" d="M402.34,116.18c-9.41-1.55-14.31-1.35-21.42-2.33-2.32-.32-5.16-.8-8.43-1.57h0l-44.18,5.6,26.76,5c2.43-.41,5-.74,7.78-.94a82,82,0,0,1,16.5.49,66.52,66.52,0,0,1,15.55-5.16A37.84,37.84,0,0,1,402.34,116.18Z"/><path class="cls-54" d="M350.43,355.28A395.12,395.12,0,0,0,315,377.06a223.72,223.72,0,0,0-28.83,23.25C268,422.6,246.87,465,270.12,527.53l.92,1c-.54-1.71-1.05-3.25-1.5-4.6-2.9-8.68-3.89-10.29-5-15.56a79.59,79.59,0,0,1-1.24-20.53,114.94,114.94,0,0,1,2.48-19.91A135.38,135.38,0,0,1,276.38,443a113,113,0,0,1,31.74-34.23,21.46,21.46,0,0,1,3.24-1.9q5.33-6.76,11.07-13.65a545.45,545.45,0,0,1,44.76-47.34C362.59,348.75,357.75,351.23,350.43,355.28Z"/><path class="cls-55" d="M286.13,400.31c-1.36,1.33-2.74,2.69-4.13,4.13-7.88,8.09-19.92,20.67-29.87,40.44-1.59,3.16-3,6.26-4.26,9.24-.69,2.49-1.37,5-2.05,7.37a32.85,32.85,0,0,1-1.47,5.12c0,.13-.07.26-.12.39.23,1.87.47,3.74.74,5.57,1.56,10.54,4.18,22.53,11.2,35.47a97.65,97.65,0,0,0,14,19.49C246.87,465,268,422.6,286.13,400.31Z"/><path class="cls-56" d="M640.4,326.9q0,24.81-11.23,36t-36,11.22H534.07q-24.81,0-36-11.22t-11.22-36V251.28q0-24.81,11.22-36t36-11.22h59.07q24.81,0,36,11.22t11.23,36Zm-42.53-75.62q0-14.17-14.18-14.17H543.52q-14.17,0-14.18,14.17V326.9q0,14.18,14.18,14.17h40.17q14.17,0,14.18-14.17Z"/><path class="cls-57" d="M703,371.79V412H661.66V246.56h36.63l2.36,11.81a84.7,84.7,0,0,1,22.8-10.75q11.7-3.42,19.73-3.42h10.63q16.08,0,25.76,9.68t9.69,25.76V334q0,17.73-10,27.77t-27.77,10Zm28.36-93.33q-12.52,0-28.36,4.72v56.71h35.45q9.43,0,9.45-9.45V286.73a8.08,8.08,0,0,0-8.27-8.27Z"/><path class="cls-58" d="M926.3,369.43a808.81,808.81,0,0,1-82.7,4.72q-16.07,0-25.75-9.68t-9.69-25.76V282q0-17.72,10-27.76t27.76-10h47.26q17.73,0,27.77,10T931,282v43.72H849.51v9.45a8.08,8.08,0,0,0,8.27,8.27q23.38,0,68.52-3.55ZM859,273.73q-9.45,0-9.45,9.45v13h40.17v-13q0-9.45-9.45-9.45Z"/><path class="cls-59" d="M1022,278.46q-12.54,0-28.36,4.72v88.61H952.29V246.56h36.63l2.36,11.81a84.7,84.7,0,0,1,22.8-10.75q11.7-3.42,19.73-3.42h10.63q16.08,0,25.76,9.68t9.69,25.76v92.15h-41.35V286.73a8.08,8.08,0,0,0-8.27-8.27Z"/><path class="cls-60" d="M1195.47,363.28q-10.86,10.88-33.43,10.87t-47.85-2.36v-31.9q18.43,1.19,37.81,1.18a11,11,0,0,0,11.81-11.81V239.47h-30.72V206.39h73.25V329.26Q1206.34,352.42,1195.47,363.28Z"/><path class="cls-60" d="M1376.47,279.64l-33.08,59.07h-33.08l-33.08-59.07v92.15H1234.7V206.39h44.89l47.26,87.43,47.26-87.43H1419v165.4h-42.53Z"/></svg>